<svg xmlns="http://www.w3.org/2000/svg" width="1200" height="720" viewBox="0 0 1200 720">
      <defs>
        <linearGradient id="top" x1="0" y1="0" x2="0" y2="1">
          <stop offset="0" stop-color="#ffffff"/>
          <stop offset="1" stop-color="#f4f6fb"/>
        </linearGradient>
        <filter id="shadow" x="-20%" y="-20%" width="140%" height="160%">
          <feDropShadow dx="0" dy="18" stdDeviation="18" flood-color="rgba(0,0,0,.12)"/>
        </filter>
      </defs>
      <rect x="0" y="0" width="1200" height="720" fill="#f7f7fb"/>
      <!-- Browser frame -->
      <rect x="48" y="44" width="1104" height="632" rx="18" fill="url(#top)" stroke="#e5e7eb" filter="url(#shadow)"/>
      <rect x="48" y="44" width="1104" height="54" rx="18" fill="#ffffff" stroke="#e5e7eb"/>
      <circle cx="78" cy="71" r="6" fill="#ff5f57"/><circle cx="98" cy="71" r="6" fill="#febc2e"/><circle cx="118" cy="71" r="6" fill="#28c840"/>
      <rect x="150" y="58" width="900" height="26" rx="10" fill="#f3f4f6" stroke="#e5e7eb"/>
      <text x="168" y="76" font-size="12" fill="#6b7280">PrimeDesk • Buscar Pessoa</text>

      <text x="84" y="132" font-size="13" fill="#6b7280" font-weight="700">Pesquisa na base CadÚnico em CSV</text>
      
        <text x="84" y="178" font-size="18" fill="#0f172a" font-weight="800">Buscar Pessoa na Base</text>
        <text x="84" y="206" font-size="13" fill="#6b7280">Nome, CPF (parcial ou completo) ou nome da mãe</text>

        <rect x="84" y="230" width="1032" height="64" rx="16" fill="#ffffff" stroke="#e5e7eb"/>
        <rect x="110" y="246" width="760" height="36" rx="12" fill="#fff" stroke="#e5e7eb"/>
        <text x="130" y="270" font-size="14" fill="#6b7280">Ex.: 123.*** | Maria | Nome da mãe…</text>
        <rect x="890" y="246" width="226" height="36" rx="999" fill="#111827"/>
        <text x="1003" y="270" font-size="14" fill="#fff" text-anchor="middle" font-weight="700">Buscar</text>

        <rect x="84" y="312" width="1032" height="340" rx="16" fill="#ffffff" stroke="#e5e7eb"/>
        <text x="110" y="350" font-size="14" fill="#6b7280" font-weight="700">Resultados</text>

        <rect x="110" y="368" width="980" height="76" rx="14" fill="#fff" stroke="#e5e7eb"/>
        <text x="132" y="402" font-size="16" fill="#0f172a" font-weight="800">MARIA APARECIDA</text>
        <text x="132" y="426" font-size="13" fill="#6b7280">CPF: 123.***.***-10 · NIS: 1234567890 · Mãe: JOSEFA…</text>

        <rect x="110" y="456" width="980" height="76" rx="14" fill="#fff" stroke="#e5e7eb"/>
        <text x="132" y="490" font-size="16" fill="#0f172a" font-weight="800">JOÃO DA SILVA</text>
        <text x="132" y="514" font-size="13" fill="#6b7280">CPF: 087.***.***-55 · NIS: 9988776655 · Mãe: MARIA…</text>

        <rect x="110" y="544" width="980" height="76" rx="14" fill="#fff" stroke="#e5e7eb"/>
        <text x="132" y="578" font-size="16" fill="#0f172a" font-weight="800">ANA CLARA</text>
        <text x="132" y="602" font-size="13" fill="#6b7280">CPF: — · NIS: 1122334455 · Mãe: ROSA…</text>
        
    </svg>