<svg xmlns="http://www.w3.org/2000/svg" width="1200" height="720" viewBox="0 0 1200 720">
      <defs>
        <linearGradient id="top" x1="0" y1="0" x2="0" y2="1">
          <stop offset="0" stop-color="#ffffff"/>
          <stop offset="1" stop-color="#f4f6fb"/>
        </linearGradient>
        <filter id="shadow" x="-20%" y="-20%" width="140%" height="160%">
          <feDropShadow dx="0" dy="18" stdDeviation="18" flood-color="rgba(0,0,0,.12)"/>
        </filter>
      </defs>
      <rect x="0" y="0" width="1200" height="720" fill="#f7f7fb"/>
      <!-- Browser frame -->
      <rect x="48" y="44" width="1104" height="632" rx="18" fill="url(#top)" stroke="#e5e7eb" filter="url(#shadow)"/>
      <rect x="48" y="44" width="1104" height="54" rx="18" fill="#ffffff" stroke="#e5e7eb"/>
      <circle cx="78" cy="71" r="6" fill="#ff5f57"/><circle cx="98" cy="71" r="6" fill="#febc2e"/><circle cx="118" cy="71" r="6" fill="#28c840"/>
      <rect x="150" y="58" width="900" height="26" rx="10" fill="#f3f4f6" stroke="#e5e7eb"/>
      <text x="168" y="76" font-size="12" fill="#6b7280">PrimeDesk • Visitas Domiciliares</text>

      <text x="84" y="132" font-size="13" fill="#6b7280" font-weight="700">Registro, agenda e status das visitas</text>
      
        <text x="84" y="178" font-size="18" fill="#0f172a" font-weight="800">Visitas domiciliares recentes</text>
        <text x="760" y="178" font-size="13" fill="#6b7280">Ver lista completa · Registrar nova visita</text>

        <rect x="84" y="208" width="1032" height="102" rx="16" fill="#ffffff" stroke="#e5e7eb"/>
        <text x="110" y="242" font-size="12" fill="#6b7280" font-weight="700">Busca</text>
        <rect x="110" y="252" width="430" height="40" rx="12" fill="#fff" stroke="#e5e7eb"/>
        <text x="130" y="278" font-size="14" fill="#6b7280">Nome, CPF ou endereço</text>

        <text x="560" y="242" font-size="12" fill="#6b7280" font-weight="700">Status</text>
        <rect x="560" y="252" width="210" height="40" rx="12" fill="#fff" stroke="#e5e7eb"/>
        <text x="580" y="278" font-size="14" fill="#0f172a">Todos ▾</text>

        <text x="790" y="242" font-size="12" fill="#6b7280" font-weight="700">Tipo</text>
        <rect x="790" y="252" width="210" height="40" rx="12" fill="#fff" stroke="#e5e7eb"/>
        <text x="810" y="278" font-size="14" fill="#0f172a">Todos ▾</text>

        <rect x="1016" y="252" width="100" height="40" rx="999" fill="#111827"/>
        <text x="1066" y="278" font-size="14" fill="#fff" text-anchor="middle" font-weight="700">Filtrar</text>

        
            <g>
              <rect x="84" y="330" width="1032" height="90" rx="14" fill="#ffffff" stroke="#e5e7eb"/>
              <text x="110" y="364" font-size="16" fill="#0f172a" font-weight="800">MARIA APARECIDA</text>
              <text x="110" y="388" font-size="14" fill="#6b7280">Rua das Flores, 120</text>
              <text x="990" y="388" font-size="13" fill="#6b7280" text-anchor="end">22/01/2026</text>
              <rect x="930" y="348" width="186" height="28" rx="999" fill="#fef3c7"/>
              <text x="1023" y="367" font-size="13" fill="#92400e" text-anchor="middle" font-weight="800">Pendente</text>
            </g>
            
            <g>
              <rect x="84" y="438" width="1032" height="90" rx="14" fill="#ffffff" stroke="#e5e7eb"/>
              <text x="110" y="472" font-size="16" fill="#0f172a" font-weight="800">JOÃO DA SILVA</text>
              <text x="110" y="496" font-size="14" fill="#6b7280">Av. Central, 455</text>
              <text x="990" y="496" font-size="13" fill="#6b7280" text-anchor="end">23/01/2026</text>
              <rect x="930" y="456" width="186" height="28" rx="999" fill="#e0edff"/>
              <text x="1023" y="475" font-size="13" fill="#0B5BD3" text-anchor="middle" font-weight="800">Agendada</text>
            </g>
            
            <g>
              <rect x="84" y="546" width="1032" height="90" rx="14" fill="#ffffff" stroke="#e5e7eb"/>
              <text x="110" y="580" font-size="16" fill="#0f172a" font-weight="800">ANA CLARA</text>
              <text x="110" y="604" font-size="14" fill="#6b7280">Trav. São José, 8</text>
              <text x="990" y="604" font-size="13" fill="#6b7280" text-anchor="end">21/01/2026</text>
              <rect x="930" y="564" width="186" height="28" rx="999" fill="#d1fae5"/>
              <text x="1023" y="583" font-size="13" fill="#065f46" text-anchor="middle" font-weight="800">Realizada</text>
            </g>
            
        
    </svg>