<svg xmlns="http://www.w3.org/2000/svg" width="1200" height="720" viewBox="0 0 1200 720">
      <defs>
        <linearGradient id="top" x1="0" y1="0" x2="0" y2="1">
          <stop offset="0" stop-color="#ffffff"/>
          <stop offset="1" stop-color="#f4f6fb"/>
        </linearGradient>
        <filter id="shadow" x="-20%" y="-20%" width="140%" height="160%">
          <feDropShadow dx="0" dy="18" stdDeviation="18" flood-color="rgba(0,0,0,.12)"/>
        </filter>
      </defs>
      <rect x="0" y="0" width="1200" height="720" fill="#f7f7fb"/>
      <!-- Browser frame -->
      <rect x="48" y="44" width="1104" height="632" rx="18" fill="url(#top)" stroke="#e5e7eb" filter="url(#shadow)"/>
      <rect x="48" y="44" width="1104" height="54" rx="18" fill="#ffffff" stroke="#e5e7eb"/>
      <circle cx="78" cy="71" r="6" fill="#ff5f57"/><circle cx="98" cy="71" r="6" fill="#febc2e"/><circle cx="118" cy="71" r="6" fill="#28c840"/>
      <rect x="150" y="58" width="900" height="26" rx="10" fill="#f3f4f6" stroke="#e5e7eb"/>
      <text x="168" y="76" font-size="12" fill="#6b7280">PrimeDesk • Relatórios</text>

      <text x="84" y="132" font-size="13" fill="#6b7280" font-weight="700">Filtros e indicadores a partir da base</text>
      
        <text x="84" y="178" font-size="18" fill="#0f172a" font-weight="800">Relatórios via Base CSV</text>
        <text x="84" y="206" font-size="13" fill="#6b7280">Filtros por território, perfil e situação da família</text>

        <rect x="84" y="230" width="1032" height="156" rx="16" fill="#ffffff" stroke="#e5e7eb"/>
        <text x="110" y="264" font-size="14" fill="#0f172a" font-weight="800">Filtros</text>

        <text x="110" y="294" font-size="12" fill="#6b7280" font-weight="700">Localidade</text>
        <rect x="110" y="304" width="300" height="38" rx="12" fill="#fff" stroke="#e5e7eb"/>
        <text x="130" y="329" font-size="14" fill="#0f172a">Todos ▾</text>

        <text x="430" y="294" font-size="12" fill="#6b7280" font-weight="700">Faixa etária</text>
        <rect x="430" y="304" width="220" height="38" rx="12" fill="#fff" stroke="#e5e7eb"/>
        <text x="450" y="329" font-size="14" fill="#0f172a">0–17 ▾</text>

        <text x="670" y="294" font-size="12" fill="#6b7280" font-weight="700">Sexo</text>
        <rect x="670" y="304" width="180" height="38" rx="12" fill="#fff" stroke="#e5e7eb"/>
        <text x="690" y="329" font-size="14" fill="#0f172a">Todos ▾</text>

        <rect x="870" y="304" width="246" height="38" rx="999" fill="#111827"/>
        <text x="993" y="329" font-size="14" fill="#fff" text-anchor="middle" font-weight="700">Aplicar filtros</text>

        <rect x="84" y="406" width="1032" height="246" rx="16" fill="#ffffff" stroke="#e5e7eb"/>
        <text x="110" y="442" font-size="14" fill="#6b7280" font-weight="700">Resumo</text>

        <rect x="110" y="460" width="300" height="70" rx="14" fill="#fff" stroke="#e5e7eb"/>
        <text x="132" y="490" font-size="13" fill="#6b7280" font-weight="700">Famílias filtradas</text>
        <text x="132" y="518" font-size="24" fill="#0f172a" font-weight="900">1.284</text>

        <rect x="430" y="460" width="300" height="70" rx="14" fill="#fff" stroke="#e5e7eb"/>
        <text x="452" y="490" font-size="13" fill="#6b7280" font-weight="700">Pessoas na base</text>
        <text x="452" y="518" font-size="24" fill="#0f172a" font-weight="900">4.901</text>

        <rect x="750" y="460" width="340" height="70" rx="14" fill="#fff" stroke="#e5e7eb"/>
        <text x="772" y="490" font-size="13" fill="#6b7280" font-weight="700">Exportação</text>
        <text x="772" y="518" font-size="14" fill="#0B5BD3" font-weight="800">Gerar CSV / PDF</text>

        <text x="110" y="582" font-size="13" fill="#6b7280">Lista detalhada e agrupamentos aparecem abaixo (por família / responsável / território).</text>
        
    </svg>